<?xml version="1.0" encoding="UTF-8"?>
<!DOCTYPE svg PUBLIC "-//W3C//DTD SVG 1.1//EN" "http://www.w3.org/Graphics/SVG/1.1/DTD/svg11.dtd">
<!-- Creator: CorelDRAW 2020 (64 Bit) -->
<svg xmlns="http://www.w3.org/2000/svg" xml:space="preserve" width="162.56mm" height="54.9672mm" version="1.1" style="shape-rendering:geometricPrecision; text-rendering:geometricPrecision; image-rendering:optimizeQuality; fill-rule:evenodd; clip-rule:evenodd"
viewBox="0 0 16255.98 5496.72"
 xmlns:xlink="http://www.w3.org/1999/xlink"
 xmlns:xodm="http://www.corel.com/coreldraw/odm/2003">
 <defs>
  <style type="text/css">
   <![CDATA[
    .fil1 {fill:#8B13F4}
    .fil0 {fill:#FEFEFE;fill-rule:nonzero}
   ]]>
  </style>
 </defs>
 <g id="Camada_x0020_1">
  <metadata id="CorelCorpID_0Corel-Layer"/>
  <g id="_1638800810992">
   <path class="fil0" d="M5504.47 5497.17l4969.81 0c1036.76,0 1529.53,-549.55 1754.49,-1389.94l120 -447.97c118.04,-439.66 43.24,-776.78 -235.61,-997.04 357.96,-219.56 610.8,-549.17 723.91,-973.47l101.44 -377c235.53,-879.4 -64.94,-1311.23 -1156.69,-1311.23l-3103.85 0 -738.8 1279.66 3194.17 0c306.58,0 409.9,109.66 344.33,353.27l-28.59 110.67c-63.05,235.15 -220.73,352.8 -573.68,352.8l-3406.52 0 -738.87 1279.66 3801.61 0c353.65,0 451.33,133.15 383.97,384.2l-18.41 71.67c-67.99,251.12 -230.6,360.78 -537.18,360.78l-4102.71 0 -752.82 1303.94z"/>
   <g>
    <polygon class="fil1" points="-7.13,2748.9 1579.66,0.53 3065.37,0.53 1478.52,2748.9 3065.37,5497.26 6238.91,0.53 7724.56,0.53 4551.02,5497.26 3065.37,5497.26 1579.66,5497.26 "/>
    <polygon class="fil1" points="16248.86,2748.9 14662.17,0.53 13176.35,0.53 14763.21,2748.9 13176.35,5497.26 14662.17,5497.26 "/>
   </g>
  </g>
 </g>
</svg>
