<?xml version="1.0" encoding="UTF-8"?>
<!DOCTYPE svg PUBLIC "-//W3C//DTD SVG 1.1//EN" "http://www.w3.org/Graphics/SVG/1.1/DTD/svg11.dtd">
<!-- Creator: CorelDRAW 2020 (64 Bit) -->
<svg xmlns="http://www.w3.org/2000/svg" xml:space="preserve" width="162.56mm" height="54.9672mm" version="1.1" style="shape-rendering:geometricPrecision; text-rendering:geometricPrecision; image-rendering:optimizeQuality; fill-rule:evenodd; clip-rule:evenodd"
viewBox="0 0 16255.98 5496.72"
 xmlns:xlink="http://www.w3.org/1999/xlink"
 xmlns:xodm="http://www.corel.com/coreldraw/odm/2003">
 <defs>
  <style type="text/css">
   <![CDATA[
    .fil1 {fill:#8B13F4}
    .fil0 {fill:#FEFEFE;fill-rule:nonzero}
   ]]>
  </style>
 </defs>
 <g id="Camada_x0020_1">
  <metadata id="CorelCorpID_0Corel-Layer"/>
  <g id="_1675118362240">
   <path class="fil0" d="M1269.01 3384.44l1144.28 0c238.71,0 352.16,-126.53 403.97,-320.02l27.63 -103.14c27.17,-101.22 9.95,-178.86 -54.25,-229.57 82.41,-50.55 140.64,-126.45 166.67,-224.13l23.36 -86.81c54.23,-202.47 -14.96,-301.9 -266.32,-301.9l-714.66 0 -170.1 294.64 735.44 0c70.6,0 94.38,25.24 79.29,81.33l-6.59 25.49c-14.51,54.14 -50.82,81.23 -132.08,81.23l-784.34 0 -170.12 294.64 875.3 0c81.43,0 103.91,30.65 88.41,88.45l-4.24 16.5c-15.66,57.83 -53.1,83.07 -123.68,83.07l-944.63 0 -173.34 300.22zm12927.81 -1265.69l-339.1 1265.94 385.07 0 117.62 -438.43 817.41 0 77.73 -290.45 -817.38 0 25.26 -94.45 -145.3 -144.76 1048.96 0 80.01 -297.95 -1250.28 0.1zm-1381.42 -0.05l-339.1 1265.94 1215.94 0 86.57 -322.65 -811.59 0 252.54 -943.29 -404.36 0zm-1504.16 0c-212.82,0 -429.92,172.26 -488.09,386.24l-131.95 493.42c-56.74,213.95 68.11,386.28 280.94,386.28l876.84 0c211.41,0 428.49,-172.33 486.67,-386.28l131.94 -493.42c56.75,-213.98 -68.1,-386.24 -279.51,-386.24l-876.84 0zm-265.34 317.58l922.26 0c70.96,0 113.52,53.64 96.48,120.43l-104.98 389.92c-18.44,66.67 -89.39,120.43 -160.33,120.43l-607.27 0c-72.37,0 -114.93,-53.76 -96.48,-120.43l96.48 -363.81 -146.16 -146.54zm-2726.3 -317.58l137.59 1265.94 527.81 0 498.02 -928.11 5.7 928.11 522.12 0 831.44 -1265.94 -408.63 0 -595.91 947.08 -34.06 -947.08 -465.37 0 -539.14 947.08 -86.58 -947.08 -392.99 0zm-1630.18 0l-103.44 386.24 -132.23 493.42 -103.44 386.28 1193.67 0c212.53,0 429.62,-172.33 487.09,-386.28l132.22 -493.42c57.21,-213.98 -67.51,-386.24 -280.06,-386.24l-1193.81 0zm108.24 317.48l873.43 0c71.37,0 114.36,53.64 96.51,120.43l-104.58 389.77c-17.87,66.79 -89.66,120.55 -160.9,120.55l-689.11 0 32.33 -120.55 97.91 -365.22 -145.59 -144.98zm-1517.28 -317.48c-212.81,0 -429.9,172.26 -488.07,386.24l-131.96 493.42c-56.75,213.95 68.08,386.28 280.93,386.28l876.83 0c211.42,0 428.49,-172.33 486.67,-386.28l131.96 -493.42c56.76,-213.98 -68.11,-386.24 -279.54,-386.24l-876.82 0zm-265.33 317.58l922.27 0c70.93,0 113.48,53.64 96.46,120.43l-104.99 389.92c-18.45,66.67 -89.37,120.43 -160.32,120.43l-607.28 0c-72.34,0 -114.93,-53.76 -96.49,-120.43l96.49 -363.81 -146.14 -146.54zm-1776.71 -317.55l-103.6 386.23 -36.88 141.19 -11.34 42.06 -83.71 310.15 -19.87 76.1 -83.71 310.15 384.5 0 82.29 -310.15 278.09 0 278.09 308.87 533.49 0 -302.21 -314.42c190.14,-30.97 370.33,-189.06 421.4,-380.7l9.93 -38.85 1.41 -3.21 36.91 -141.19c58.18,-213.97 -66.71,-386.23 -279.51,-386.23l-1105.28 0zm113.49 316.27l780.37 1.36c70.94,0 113.49,53.76 96.49,120.43l-24.12 89.46 -1.43 0c-21.29,62.1 -89.39,110.78 -157.49,110.78l-471.08 0 -123.42 0.74 29.8 -111.3 17.02 -65.07 -146.14 -146.4z"/>
   <path class="fil1" d="M16255.99 2751.67l-364.16 -630.78 -341.02 0 364.2 630.78 -364.2 630.78 341.02 0 364.16 -630.78zm-16256 0l365.34 -632.8 342.09 0 -365.37 632.8 365.37 632.8 730.69 -1265.6 342.06 0 -730.69 1265.6 -342.06 0 -342.09 0 -365.34 -632.8z"/>
  </g>
 </g>
</svg>
